<?xml version="1.0" encoding="UTF-8" ?>
<!DOCTYPE score-partwise PUBLIC '-//Recordare//DTD MusicXML 2.0 Partwise//EN' 'http://www.musicxml.org/dtds/2.0/partwise.dtd'>
<score-partwise version="2.0">
 <work>
  <work-title>unchained</work-title>
 </work>
 <identification>
  <encoding>
   <encoding-date>2023-05-11</encoding-date>
   <software>Guitar Pro 8.1.0</software>
   <supports type="yes" attribute="new-system" value="yes" element="print"/>
  </encoding>
 </identification>
 <defaults>
  <scaling>
   <millimeters>6.4</millimeters>
   <tenths>40</tenths>
  </scaling>
  <page-layout>
   <page-height>1850</page-height>
   <page-width>1310</page-width>
  </page-layout>
 </defaults>
 <credit>
  <credit-words font-size="24" justify="center" valign="top">unchained</credit-words>
 </credit>
 <part-list>
  <score-part id="P1">
   <part-name>Steel Guitar</part-name>
   <part-abbreviation>s.guit.</part-abbreviation>
   <midi-instrument id="P1">
    <midi-channel>1</midi-channel>
    <midi-bank>1</midi-bank>
    <midi-program>26</midi-program>
    <volume>80</volume>
    <pan>0</pan>
   </midi-instrument>
  </score-part>
 </part-list>
 <part id="P1">
  <measure number="1">
   <print new-system="yes"/>
   <attributes>
    <divisions>1</divisions>
    <key>
     <fifths>0</fifths>
     <mode>major</mode>
    </key>
    <time>
     <beats>12</beats>
     <beat-type>8</beat-type>
    </time>
    <clef number="1">
     <sign>TAB</sign>
     <line>5</line>
    </clef>
    <staff-details number="1">
     <staff-lines>6</staff-lines>
     <staff-tuning line="1">
      <tuning-step>E</tuning-step>
      <tuning-octave>2</tuning-octave>
     </staff-tuning>
     <staff-tuning line="2">
      <tuning-step>A</tuning-step>
      <tuning-octave>2</tuning-octave>
     </staff-tuning>
     <staff-tuning line="3">
      <tuning-step>D</tuning-step>
      <tuning-octave>3</tuning-octave>
     </staff-tuning>
     <staff-tuning line="4">
      <tuning-step>G</tuning-step>
      <tuning-octave>3</tuning-octave>
     </staff-tuning>
     <staff-tuning line="5">
      <tuning-step>B</tuning-step>
      <tuning-octave>3</tuning-octave>
     </staff-tuning>
     <staff-tuning line="6">
      <tuning-step>E</tuning-step>
      <tuning-octave>4</tuning-octave>
     </staff-tuning>
    </staff-details>
   </attributes>
   <direction directive="yes">
    <direction-type>
     <metronome default-y="40" parentheses="no">
      <beat-unit>quarter</beat-unit>
      <per-minute>120</per-minute>
     </metronome>
    </direction-type>
    <sound tempo="50"/>
   </direction>
   <direction>
    <direction-type>
     <dynamics>
      <mf/>
     </dynamics>
    </direction-type>
   </direction>
  </measure>
  <measure number="2">
   <print new-system="yes"/>
   <attributes>
    <divisions>2</divisions>
   </attributes>
   <harmony>
    <root>
     <root-step>C</root-step>
     <root-alter>0</root-alter>
    </root>
    <kind>major</kind>
    <frame>
     <frame-strings>6</frame-strings>
     <frame-frets>5</frame-frets>
     <first-fret>1</first-fret>
     <frame-note>
      <string>5</string>
      <fret>3</fret>
     </frame-note>
     <frame-note>
      <string>3</string>
      <fret>0</fret>
     </frame-note>
     <frame-note>
      <string>2</string>
      <fret>1</fret>
     </frame-note>
     <frame-note>
      <string>1</string>
      <fret>0</fret>
     </frame-note>
    </frame>
   </harmony>
   <direction>
    <direction-type>
     <dynamics>
      <mf/>
     </dynamics>
    </direction-type>
   </direction>
   <note>
    <pitch>
     <step>C</step>
     <octave>3</octave>
    </pitch>
    <duration>1</duration>
    <voice>1</voice>
    <type>eighth</type>
    <stem>up</stem>
    <beam number="1">begin</beam>
    <notations>
     <technical>
      <string>5</string>
      <fret>3</fret>
     </technical>
    </notations>
   </note>
   <note>
    <pitch>
     <step>G</step>
     <octave>3</octave>
    </pitch>
    <duration>1</duration>
    <voice>1</voice>
    <type>eighth</type>
    <stem>up</stem>
    <beam number="1">continue</beam>
    <notations>
     <technical>
      <string>3</string>
      <fret>0</fret>
     </technical>
    </notations>
   </note>
   <note>
    <pitch>
     <step>C</step>
     <octave>4</octave>
    </pitch>
    <duration>1</duration>
    <voice>1</voice>
    <type>eighth</type>
    <stem>up</stem>
    <beam number="1">end</beam>
    <notations>
     <technical>
      <string>2</string>
      <fret>1</fret>
     </technical>
    </notations>
   </note>
   <note>
    <pitch>
     <step>E</step>
     <octave>4</octave>
    </pitch>
    <duration>1</duration>
    <voice>1</voice>
    <type>eighth</type>
    <stem>up</stem>
    <beam number="1">begin</beam>
    <notations>
     <technical>
      <string>1</string>
      <fret>0</fret>
     </technical>
    </notations>
   </note>
   <note>
    <pitch>
     <step>C</step>
     <octave>4</octave>
    </pitch>
    <duration>1</duration>
    <voice>1</voice>
    <type>eighth</type>
    <stem>up</stem>
    <beam number="1">continue</beam>
    <notations>
     <technical>
      <string>2</string>
      <fret>1</fret>
     </technical>
    </notations>
   </note>
   <note>
    <pitch>
     <step>G</step>
     <octave>3</octave>
    </pitch>
    <duration>1</duration>
    <voice>1</voice>
    <type>eighth</type>
    <stem>up</stem>
    <beam number="1">end</beam>
    <notations>
     <technical>
      <string>3</string>
      <fret>0</fret>
     </technical>
    </notations>
   </note>
   <note>
    <pitch>
     <step>C</step>
     <octave>3</octave>
    </pitch>
    <duration>1</duration>
    <voice>1</voice>
    <type>eighth</type>
    <stem>up</stem>
    <beam number="1">begin</beam>
    <notations>
     <technical>
      <string>5</string>
      <fret>3</fret>
     </technical>
    </notations>
   </note>
   <note>
    <pitch>
     <step>G</step>
     <octave>3</octave>
    </pitch>
    <duration>1</duration>
    <voice>1</voice>
    <type>eighth</type>
    <stem>up</stem>
    <beam number="1">continue</beam>
    <notations>
     <technical>
      <string>3</string>
      <fret>0</fret>
     </technical>
    </notations>
   </note>
   <note>
    <pitch>
     <step>C</step>
     <octave>4</octave>
    </pitch>
    <duration>1</duration>
    <voice>1</voice>
    <type>eighth</type>
    <stem>up</stem>
    <beam number="1">end</beam>
    <notations>
     <technical>
      <string>2</string>
      <fret>1</fret>
     </technical>
    </notations>
   </note>
   <note>
    <pitch>
     <step>E</step>
     <octave>4</octave>
    </pitch>
    <duration>1</duration>
    <voice>1</voice>
    <type>eighth</type>
    <stem>up</stem>
    <beam number="1">begin</beam>
    <notations>
     <technical>
      <string>1</string>
      <fret>0</fret>
     </technical>
    </notations>
   </note>
   <note>
    <pitch>
     <step>C</step>
     <octave>4</octave>
    </pitch>
    <duration>1</duration>
    <voice>1</voice>
    <type>eighth</type>
    <stem>up</stem>
    <beam number="1">continue</beam>
    <notations>
     <technical>
      <string>2</string>
      <fret>1</fret>
     </technical>
    </notations>
   </note>
   <note>
    <pitch>
     <step>G</step>
     <octave>3</octave>
    </pitch>
    <duration>1</duration>
    <voice>1</voice>
    <type>eighth</type>
    <stem>up</stem>
    <beam number="1">end</beam>
    <notations>
     <technical>
      <string>3</string>
      <fret>0</fret>
     </technical>
    </notations>
   </note>
  </measure>
  <measure number="3">
   <harmony>
    <root>
     <root-step>A</root-step>
     <root-alter>0</root-alter>
    </root>
    <kind>minor</kind>
    <frame>
     <frame-strings>6</frame-strings>
     <frame-frets>5</frame-frets>
     <first-fret>1</first-fret>
     <frame-note>
      <string>5</string>
      <fret>0</fret>
     </frame-note>
     <frame-note>
      <string>3</string>
      <fret>2</fret>
     </frame-note>
     <frame-note>
      <string>2</string>
      <fret>1</fret>
     </frame-note>
     <frame-note>
      <string>1</string>
      <fret>0</fret>
     </frame-note>
    </frame>
   </harmony>
   <direction>
    <direction-type>
     <dynamics>
      <mf/>
     </dynamics>
    </direction-type>
   </direction>
   <note>
    <pitch>
     <step>A</step>
     <octave>2</octave>
    </pitch>
    <duration>1</duration>
    <voice>1</voice>
    <type>eighth</type>
    <stem>up</stem>
    <beam number="1">begin</beam>
    <notations>
     <technical>
      <string>5</string>
      <fret>0</fret>
     </technical>
    </notations>
   </note>
   <note>
    <pitch>
     <step>A</step>
     <octave>3</octave>
    </pitch>
    <duration>1</duration>
    <voice>1</voice>
    <type>eighth</type>
    <stem>up</stem>
    <beam number="1">continue</beam>
    <notations>
     <technical>
      <string>3</string>
      <fret>2</fret>
     </technical>
    </notations>
   </note>
   <note>
    <pitch>
     <step>C</step>
     <octave>4</octave>
    </pitch>
    <duration>1</duration>
    <voice>1</voice>
    <type>eighth</type>
    <stem>up</stem>
    <beam number="1">end</beam>
    <notations>
     <technical>
      <string>2</string>
      <fret>1</fret>
     </technical>
    </notations>
   </note>
   <note>
    <pitch>
     <step>E</step>
     <octave>4</octave>
    </pitch>
    <duration>1</duration>
    <voice>1</voice>
    <type>eighth</type>
    <stem>up</stem>
    <beam number="1">begin</beam>
    <notations>
     <technical>
      <string>1</string>
      <fret>0</fret>
     </technical>
    </notations>
   </note>
   <note>
    <pitch>
     <step>C</step>
     <octave>4</octave>
    </pitch>
    <duration>1</duration>
    <voice>1</voice>
    <type>eighth</type>
    <stem>up</stem>
    <beam number="1">continue</beam>
    <notations>
     <technical>
      <string>2</string>
      <fret>1</fret>
     </technical>
    </notations>
   </note>
   <note>
    <pitch>
     <step>A</step>
     <octave>3</octave>
    </pitch>
    <duration>1</duration>
    <voice>1</voice>
    <type>eighth</type>
    <stem>up</stem>
    <beam number="1">end</beam>
    <notations>
     <technical>
      <string>3</string>
      <fret>2</fret>
     </technical>
    </notations>
   </note>
   <note>
    <pitch>
     <step>A</step>
     <octave>2</octave>
    </pitch>
    <duration>1</duration>
    <voice>1</voice>
    <type>eighth</type>
    <stem>up</stem>
    <beam number="1">begin</beam>
    <notations>
     <technical>
      <string>5</string>
      <fret>0</fret>
     </technical>
    </notations>
   </note>
   <note>
    <pitch>
     <step>A</step>
     <octave>3</octave>
    </pitch>
    <duration>1</duration>
    <voice>1</voice>
    <type>eighth</type>
    <stem>up</stem>
    <beam number="1">continue</beam>
    <notations>
     <technical>
      <string>3</string>
      <fret>2</fret>
     </technical>
    </notations>
   </note>
   <note>
    <pitch>
     <step>C</step>
     <octave>4</octave>
    </pitch>
    <duration>1</duration>
    <voice>1</voice>
    <type>eighth</type>
    <stem>up</stem>
    <beam number="1">end</beam>
    <notations>
     <technical>
      <string>2</string>
      <fret>1</fret>
     </technical>
    </notations>
   </note>
   <note>
    <pitch>
     <step>E</step>
     <octave>4</octave>
    </pitch>
    <duration>1</duration>
    <voice>1</voice>
    <type>eighth</type>
    <stem>up</stem>
    <beam number="1">begin</beam>
    <notations>
     <technical>
      <string>1</string>
      <fret>0</fret>
     </technical>
    </notations>
   </note>
   <note>
    <pitch>
     <step>C</step>
     <octave>4</octave>
    </pitch>
    <duration>1</duration>
    <voice>1</voice>
    <type>eighth</type>
    <stem>up</stem>
    <beam number="1">continue</beam>
    <notations>
     <technical>
      <string>2</string>
      <fret>1</fret>
     </technical>
    </notations>
   </note>
   <note>
    <pitch>
     <step>A</step>
     <octave>3</octave>
    </pitch>
    <duration>1</duration>
    <voice>1</voice>
    <type>eighth</type>
    <stem>up</stem>
    <beam number="1">end</beam>
    <notations>
     <technical>
      <string>3</string>
      <fret>2</fret>
     </technical>
    </notations>
   </note>
  </measure>
  <measure number="4">
   <harmony>
    <root>
     <root-step>F</root-step>
     <root-alter>0</root-alter>
    </root>
    <kind>major-seventh</kind>
    <frame>
     <frame-strings>6</frame-strings>
     <frame-frets>5</frame-frets>
     <first-fret>1</first-fret>
     <frame-note>
      <string>4</string>
      <fret>3</fret>
     </frame-note>
     <frame-note>
      <string>3</string>
      <fret>2</fret>
     </frame-note>
     <frame-note>
      <string>2</string>
      <fret>1</fret>
     </frame-note>
     <frame-note>
      <string>1</string>
      <fret>0</fret>
     </frame-note>
    </frame>
   </harmony>
   <direction>
    <direction-type>
     <dynamics>
      <mf/>
     </dynamics>
    </direction-type>
   </direction>
   <note>
    <pitch>
     <step>F</step>
     <octave>3</octave>
    </pitch>
    <duration>1</duration>
    <voice>1</voice>
    <type>eighth</type>
    <stem>up</stem>
    <beam number="1">begin</beam>
    <notations>
     <technical>
      <string>4</string>
      <fret>3</fret>
     </technical>
    </notations>
   </note>
   <note>
    <pitch>
     <step>A</step>
     <octave>3</octave>
    </pitch>
    <duration>1</duration>
    <voice>1</voice>
    <type>eighth</type>
    <stem>up</stem>
    <beam number="1">continue</beam>
    <notations>
     <technical>
      <string>3</string>
      <fret>2</fret>
     </technical>
    </notations>
   </note>
   <note>
    <pitch>
     <step>C</step>
     <octave>4</octave>
    </pitch>
    <duration>1</duration>
    <voice>1</voice>
    <type>eighth</type>
    <stem>up</stem>
    <beam number="1">end</beam>
    <notations>
     <technical>
      <string>2</string>
      <fret>1</fret>
     </technical>
    </notations>
   </note>
   <note>
    <pitch>
     <step>E</step>
     <octave>4</octave>
    </pitch>
    <duration>1</duration>
    <voice>1</voice>
    <type>eighth</type>
    <stem>up</stem>
    <beam number="1">begin</beam>
    <notations>
     <technical>
      <string>1</string>
      <fret>0</fret>
     </technical>
    </notations>
   </note>
   <note>
    <pitch>
     <step>C</step>
     <octave>4</octave>
    </pitch>
    <duration>1</duration>
    <voice>1</voice>
    <type>eighth</type>
    <stem>up</stem>
    <beam number="1">continue</beam>
    <notations>
     <technical>
      <string>2</string>
      <fret>1</fret>
     </technical>
    </notations>
   </note>
   <note>
    <pitch>
     <step>A</step>
     <octave>3</octave>
    </pitch>
    <duration>1</duration>
    <voice>1</voice>
    <type>eighth</type>
    <stem>up</stem>
    <beam number="1">end</beam>
    <notations>
     <technical>
      <string>3</string>
      <fret>2</fret>
     </technical>
    </notations>
   </note>
   <note>
    <pitch>
     <step>F</step>
     <octave>3</octave>
    </pitch>
    <duration>1</duration>
    <voice>1</voice>
    <type>eighth</type>
    <stem>up</stem>
    <beam number="1">begin</beam>
    <notations>
     <technical>
      <string>4</string>
      <fret>3</fret>
     </technical>
    </notations>
   </note>
   <note>
    <pitch>
     <step>A</step>
     <octave>3</octave>
    </pitch>
    <duration>1</duration>
    <voice>1</voice>
    <type>eighth</type>
    <stem>up</stem>
    <beam number="1">continue</beam>
    <notations>
     <technical>
      <string>3</string>
      <fret>2</fret>
     </technical>
    </notations>
   </note>
   <note>
    <pitch>
     <step>C</step>
     <octave>4</octave>
    </pitch>
    <duration>1</duration>
    <voice>1</voice>
    <type>eighth</type>
    <stem>up</stem>
    <beam number="1">end</beam>
    <notations>
     <technical>
      <string>2</string>
      <fret>1</fret>
     </technical>
    </notations>
   </note>
   <note>
    <pitch>
     <step>E</step>
     <octave>4</octave>
    </pitch>
    <duration>1</duration>
    <voice>1</voice>
    <type>eighth</type>
    <stem>up</stem>
    <beam number="1">begin</beam>
    <notations>
     <technical>
      <string>1</string>
      <fret>0</fret>
     </technical>
    </notations>
   </note>
   <note>
    <pitch>
     <step>C</step>
     <octave>4</octave>
    </pitch>
    <duration>1</duration>
    <voice>1</voice>
    <type>eighth</type>
    <stem>up</stem>
    <beam number="1">continue</beam>
    <notations>
     <technical>
      <string>2</string>
      <fret>1</fret>
     </technical>
    </notations>
   </note>
   <note>
    <pitch>
     <step>A</step>
     <octave>3</octave>
    </pitch>
    <duration>1</duration>
    <voice>1</voice>
    <type>eighth</type>
    <stem>up</stem>
    <beam number="1">end</beam>
    <notations>
     <technical>
      <string>3</string>
      <fret>2</fret>
     </technical>
    </notations>
   </note>
  </measure>
  <measure number="5">
   <harmony>
    <root>
     <root-step>G</root-step>
     <root-alter>0</root-alter>
    </root>
    <kind>major</kind>
    <frame>
     <frame-strings>6</frame-strings>
     <frame-frets>5</frame-frets>
     <first-fret>1</first-fret>
     <frame-note>
      <string>6</string>
      <fret>3</fret>
     </frame-note>
     <frame-note>
      <string>3</string>
      <fret>0</fret>
     </frame-note>
     <frame-note>
      <string>2</string>
      <fret>0</fret>
     </frame-note>
     <frame-note>
      <string>1</string>
      <fret>3</fret>
     </frame-note>
    </frame>
    <degree>
     <degree-value>5</degree-value>
     <degree-alter>0</degree-alter>
     <degree-type>subtract</degree-type>
    </degree>
   </harmony>
   <direction>
    <direction-type>
     <dynamics>
      <mf/>
     </dynamics>
    </direction-type>
   </direction>
   <note>
    <pitch>
     <step>G</step>
     <octave>2</octave>
    </pitch>
    <duration>1</duration>
    <voice>1</voice>
    <type>eighth</type>
    <stem>up</stem>
    <beam number="1">begin</beam>
    <notations>
     <technical>
      <string>6</string>
      <fret>3</fret>
     </technical>
    </notations>
   </note>
   <note>
    <pitch>
     <step>G</step>
     <octave>3</octave>
    </pitch>
    <duration>1</duration>
    <voice>1</voice>
    <type>eighth</type>
    <stem>up</stem>
    <beam number="1">continue</beam>
    <notations>
     <technical>
      <string>3</string>
      <fret>0</fret>
     </technical>
    </notations>
   </note>
   <note>
    <pitch>
     <step>B</step>
     <octave>3</octave>
    </pitch>
    <duration>1</duration>
    <voice>1</voice>
    <type>eighth</type>
    <stem>up</stem>
    <beam number="1">end</beam>
    <notations>
     <technical>
      <string>2</string>
      <fret>0</fret>
     </technical>
    </notations>
   </note>
   <note>
    <pitch>
     <step>G</step>
     <octave>4</octave>
    </pitch>
    <duration>1</duration>
    <voice>1</voice>
    <type>eighth</type>
    <stem>up</stem>
    <beam number="1">begin</beam>
    <notations>
     <technical>
      <string>1</string>
      <fret>3</fret>
     </technical>
    </notations>
   </note>
   <note>
    <pitch>
     <step>B</step>
     <octave>3</octave>
    </pitch>
    <duration>1</duration>
    <voice>1</voice>
    <type>eighth</type>
    <stem>up</stem>
    <beam number="1">continue</beam>
    <notations>
     <technical>
      <string>2</string>
      <fret>0</fret>
     </technical>
    </notations>
   </note>
   <note>
    <pitch>
     <step>G</step>
     <octave>3</octave>
    </pitch>
    <duration>1</duration>
    <voice>1</voice>
    <type>eighth</type>
    <stem>up</stem>
    <beam number="1">end</beam>
    <notations>
     <technical>
      <string>3</string>
      <fret>0</fret>
     </technical>
    </notations>
   </note>
   <note>
    <pitch>
     <step>G</step>
     <octave>2</octave>
    </pitch>
    <duration>1</duration>
    <voice>1</voice>
    <type>eighth</type>
    <stem>up</stem>
    <beam number="1">begin</beam>
    <notations>
     <technical>
      <string>6</string>
      <fret>3</fret>
     </technical>
    </notations>
   </note>
   <note>
    <pitch>
     <step>G</step>
     <octave>3</octave>
    </pitch>
    <duration>1</duration>
    <voice>1</voice>
    <type>eighth</type>
    <stem>up</stem>
    <beam number="1">continue</beam>
    <notations>
     <technical>
      <string>3</string>
      <fret>0</fret>
     </technical>
    </notations>
   </note>
   <note>
    <pitch>
     <step>B</step>
     <octave>3</octave>
    </pitch>
    <duration>1</duration>
    <voice>1</voice>
    <type>eighth</type>
    <stem>up</stem>
    <beam number="1">end</beam>
    <notations>
     <technical>
      <string>2</string>
      <fret>0</fret>
     </technical>
    </notations>
   </note>
   <note>
    <pitch>
     <step>G</step>
     <octave>4</octave>
    </pitch>
    <duration>1</duration>
    <voice>1</voice>
    <type>eighth</type>
    <stem>up</stem>
    <beam number="1">begin</beam>
    <notations>
     <technical>
      <string>1</string>
      <fret>3</fret>
     </technical>
    </notations>
   </note>
   <note>
    <pitch>
     <step>B</step>
     <octave>3</octave>
    </pitch>
    <duration>1</duration>
    <voice>1</voice>
    <type>eighth</type>
    <stem>up</stem>
    <beam number="1">continue</beam>
    <notations>
     <technical>
      <string>2</string>
      <fret>0</fret>
     </technical>
    </notations>
   </note>
   <note>
    <pitch>
     <step>G</step>
     <octave>3</octave>
    </pitch>
    <duration>1</duration>
    <voice>1</voice>
    <type>eighth</type>
    <stem>up</stem>
    <beam number="1">end</beam>
    <notations>
     <technical>
      <string>3</string>
      <fret>0</fret>
     </technical>
    </notations>
   </note>
  </measure>
  <measure number="6">
   <print new-system="yes"/>
   <harmony>
    <root>
     <root-step>C</root-step>
     <root-alter>0</root-alter>
    </root>
    <kind>major</kind>
    <frame>
     <frame-strings>6</frame-strings>
     <frame-frets>5</frame-frets>
     <first-fret>1</first-fret>
     <frame-note>
      <string>5</string>
      <fret>3</fret>
     </frame-note>
     <frame-note>
      <string>3</string>
      <fret>0</fret>
     </frame-note>
     <frame-note>
      <string>2</string>
      <fret>1</fret>
     </frame-note>
     <frame-note>
      <string>1</string>
      <fret>0</fret>
     </frame-note>
    </frame>
   </harmony>
   <direction>
    <direction-type>
     <dynamics>
      <mf/>
     </dynamics>
    </direction-type>
   </direction>
   <note>
    <pitch>
     <step>C</step>
     <octave>3</octave>
    </pitch>
    <duration>1</duration>
    <voice>1</voice>
    <type>eighth</type>
    <stem>up</stem>
    <beam number="1">begin</beam>
    <notations>
     <technical>
      <string>5</string>
      <fret>3</fret>
     </technical>
    </notations>
   </note>
   <note>
    <pitch>
     <step>G</step>
     <octave>3</octave>
    </pitch>
    <duration>1</duration>
    <voice>1</voice>
    <type>eighth</type>
    <stem>up</stem>
    <beam number="1">continue</beam>
    <notations>
     <technical>
      <string>3</string>
      <fret>0</fret>
     </technical>
    </notations>
   </note>
   <note>
    <pitch>
     <step>C</step>
     <octave>4</octave>
    </pitch>
    <duration>1</duration>
    <voice>1</voice>
    <type>eighth</type>
    <stem>up</stem>
    <beam number="1">end</beam>
    <notations>
     <technical>
      <string>2</string>
      <fret>1</fret>
     </technical>
    </notations>
   </note>
   <note>
    <pitch>
     <step>E</step>
     <octave>4</octave>
    </pitch>
    <duration>1</duration>
    <voice>1</voice>
    <type>eighth</type>
    <stem>up</stem>
    <beam number="1">begin</beam>
    <notations>
     <technical>
      <string>1</string>
      <fret>0</fret>
     </technical>
    </notations>
   </note>
   <note>
    <pitch>
     <step>C</step>
     <octave>4</octave>
    </pitch>
    <duration>1</duration>
    <voice>1</voice>
    <type>eighth</type>
    <stem>up</stem>
    <beam number="1">continue</beam>
    <notations>
     <technical>
      <string>2</string>
      <fret>1</fret>
     </technical>
    </notations>
   </note>
   <note>
    <pitch>
     <step>G</step>
     <octave>3</octave>
    </pitch>
    <duration>1</duration>
    <voice>1</voice>
    <type>eighth</type>
    <stem>up</stem>
    <beam number="1">end</beam>
    <notations>
     <technical>
      <string>3</string>
      <fret>0</fret>
     </technical>
    </notations>
   </note>
   <note>
    <pitch>
     <step>C</step>
     <octave>3</octave>
    </pitch>
    <duration>1</duration>
    <voice>1</voice>
    <type>eighth</type>
    <stem>up</stem>
    <beam number="1">begin</beam>
    <notations>
     <technical>
      <string>5</string>
      <fret>3</fret>
     </technical>
    </notations>
   </note>
   <note>
    <pitch>
     <step>G</step>
     <octave>3</octave>
    </pitch>
    <duration>1</duration>
    <voice>1</voice>
    <type>eighth</type>
    <stem>up</stem>
    <beam number="1">continue</beam>
    <notations>
     <technical>
      <string>3</string>
      <fret>0</fret>
     </technical>
    </notations>
   </note>
   <note>
    <pitch>
     <step>C</step>
     <octave>4</octave>
    </pitch>
    <duration>1</duration>
    <voice>1</voice>
    <type>eighth</type>
    <stem>up</stem>
    <beam number="1">end</beam>
    <notations>
     <technical>
      <string>2</string>
      <fret>1</fret>
     </technical>
    </notations>
   </note>
   <note>
    <pitch>
     <step>E</step>
     <octave>4</octave>
    </pitch>
    <duration>1</duration>
    <voice>1</voice>
    <type>eighth</type>
    <stem>up</stem>
    <beam number="1">begin</beam>
    <notations>
     <technical>
      <string>1</string>
      <fret>0</fret>
     </technical>
    </notations>
   </note>
   <note>
    <pitch>
     <step>C</step>
     <octave>4</octave>
    </pitch>
    <duration>1</duration>
    <voice>1</voice>
    <type>eighth</type>
    <stem>up</stem>
    <beam number="1">continue</beam>
    <notations>
     <technical>
      <string>2</string>
      <fret>1</fret>
     </technical>
    </notations>
   </note>
   <note>
    <pitch>
     <step>G</step>
     <octave>3</octave>
    </pitch>
    <duration>1</duration>
    <voice>1</voice>
    <type>eighth</type>
    <stem>up</stem>
    <beam number="1">end</beam>
    <notations>
     <technical>
      <string>3</string>
      <fret>0</fret>
     </technical>
    </notations>
   </note>
  </measure>
  <measure number="7">
   <harmony>
    <root>
     <root-step>A</root-step>
     <root-alter>0</root-alter>
    </root>
    <kind>minor</kind>
    <frame>
     <frame-strings>6</frame-strings>
     <frame-frets>5</frame-frets>
     <first-fret>1</first-fret>
     <frame-note>
      <string>5</string>
      <fret>0</fret>
     </frame-note>
     <frame-note>
      <string>3</string>
      <fret>2</fret>
     </frame-note>
     <frame-note>
      <string>2</string>
      <fret>1</fret>
     </frame-note>
     <frame-note>
      <string>1</string>
      <fret>0</fret>
     </frame-note>
    </frame>
   </harmony>
   <direction>
    <direction-type>
     <dynamics>
      <mf/>
     </dynamics>
    </direction-type>
   </direction>
   <note>
    <pitch>
     <step>A</step>
     <octave>2</octave>
    </pitch>
    <duration>1</duration>
    <voice>1</voice>
    <type>eighth</type>
    <stem>up</stem>
    <beam number="1">begin</beam>
    <notations>
     <technical>
      <string>5</string>
      <fret>0</fret>
     </technical>
    </notations>
   </note>
   <note>
    <pitch>
     <step>A</step>
     <octave>3</octave>
    </pitch>
    <duration>1</duration>
    <voice>1</voice>
    <type>eighth</type>
    <stem>up</stem>
    <beam number="1">continue</beam>
    <notations>
     <technical>
      <string>3</string>
      <fret>2</fret>
     </technical>
    </notations>
   </note>
   <note>
    <pitch>
     <step>C</step>
     <octave>4</octave>
    </pitch>
    <duration>1</duration>
    <voice>1</voice>
    <type>eighth</type>
    <stem>up</stem>
    <beam number="1">end</beam>
    <notations>
     <technical>
      <string>2</string>
      <fret>1</fret>
     </technical>
    </notations>
   </note>
   <note>
    <pitch>
     <step>E</step>
     <octave>4</octave>
    </pitch>
    <duration>1</duration>
    <voice>1</voice>
    <type>eighth</type>
    <stem>up</stem>
    <beam number="1">begin</beam>
    <notations>
     <technical>
      <string>1</string>
      <fret>0</fret>
     </technical>
    </notations>
   </note>
   <note>
    <pitch>
     <step>C</step>
     <octave>4</octave>
    </pitch>
    <duration>1</duration>
    <voice>1</voice>
    <type>eighth</type>
    <stem>up</stem>
    <beam number="1">continue</beam>
    <notations>
     <technical>
      <string>2</string>
      <fret>1</fret>
     </technical>
    </notations>
   </note>
   <note>
    <pitch>
     <step>A</step>
     <octave>3</octave>
    </pitch>
    <duration>1</duration>
    <voice>1</voice>
    <type>eighth</type>
    <stem>up</stem>
    <beam number="1">end</beam>
    <notations>
     <technical>
      <string>3</string>
      <fret>2</fret>
     </technical>
    </notations>
   </note>
   <note>
    <pitch>
     <step>A</step>
     <octave>2</octave>
    </pitch>
    <duration>1</duration>
    <voice>1</voice>
    <type>eighth</type>
    <stem>up</stem>
    <beam number="1">begin</beam>
    <notations>
     <technical>
      <string>5</string>
      <fret>0</fret>
     </technical>
    </notations>
   </note>
   <note>
    <pitch>
     <step>A</step>
     <octave>3</octave>
    </pitch>
    <duration>1</duration>
    <voice>1</voice>
    <type>eighth</type>
    <stem>up</stem>
    <beam number="1">continue</beam>
    <notations>
     <technical>
      <string>3</string>
      <fret>2</fret>
     </technical>
    </notations>
   </note>
   <note>
    <pitch>
     <step>C</step>
     <octave>4</octave>
    </pitch>
    <duration>1</duration>
    <voice>1</voice>
    <type>eighth</type>
    <stem>up</stem>
    <beam number="1">end</beam>
    <notations>
     <technical>
      <string>2</string>
      <fret>1</fret>
     </technical>
    </notations>
   </note>
   <note>
    <pitch>
     <step>E</step>
     <octave>4</octave>
    </pitch>
    <duration>1</duration>
    <voice>1</voice>
    <type>eighth</type>
    <stem>up</stem>
    <beam number="1">begin</beam>
    <notations>
     <technical>
      <string>1</string>
      <fret>0</fret>
     </technical>
    </notations>
   </note>
   <note>
    <pitch>
     <step>C</step>
     <octave>4</octave>
    </pitch>
    <duration>1</duration>
    <voice>1</voice>
    <type>eighth</type>
    <stem>up</stem>
    <beam number="1">continue</beam>
    <notations>
     <technical>
      <string>2</string>
      <fret>1</fret>
     </technical>
    </notations>
   </note>
   <note>
    <pitch>
     <step>A</step>
     <octave>3</octave>
    </pitch>
    <duration>1</duration>
    <voice>1</voice>
    <type>eighth</type>
    <stem>up</stem>
    <beam number="1">end</beam>
    <notations>
     <technical>
      <string>3</string>
      <fret>2</fret>
     </technical>
    </notations>
   </note>
  </measure>
  <measure number="8">
   <harmony>
    <root>
     <root-step>F</root-step>
     <root-alter>0</root-alter>
    </root>
    <kind>major-seventh</kind>
    <frame>
     <frame-strings>6</frame-strings>
     <frame-frets>5</frame-frets>
     <first-fret>1</first-fret>
     <frame-note>
      <string>4</string>
      <fret>3</fret>
     </frame-note>
     <frame-note>
      <string>3</string>
      <fret>2</fret>
     </frame-note>
     <frame-note>
      <string>2</string>
      <fret>1</fret>
     </frame-note>
     <frame-note>
      <string>1</string>
      <fret>0</fret>
     </frame-note>
    </frame>
   </harmony>
   <direction>
    <direction-type>
     <dynamics>
      <mf/>
     </dynamics>
    </direction-type>
   </direction>
   <note>
    <pitch>
     <step>F</step>
     <octave>3</octave>
    </pitch>
    <duration>1</duration>
    <voice>1</voice>
    <type>eighth</type>
    <stem>up</stem>
    <beam number="1">begin</beam>
    <notations>
     <technical>
      <string>4</string>
      <fret>3</fret>
     </technical>
    </notations>
   </note>
   <note>
    <pitch>
     <step>A</step>
     <octave>3</octave>
    </pitch>
    <duration>1</duration>
    <voice>1</voice>
    <type>eighth</type>
    <stem>up</stem>
    <beam number="1">continue</beam>
    <notations>
     <technical>
      <string>3</string>
      <fret>2</fret>
     </technical>
    </notations>
   </note>
   <note>
    <pitch>
     <step>C</step>
     <octave>4</octave>
    </pitch>
    <duration>1</duration>
    <voice>1</voice>
    <type>eighth</type>
    <stem>up</stem>
    <beam number="1">end</beam>
    <notations>
     <technical>
      <string>2</string>
      <fret>1</fret>
     </technical>
    </notations>
   </note>
   <note>
    <pitch>
     <step>E</step>
     <octave>4</octave>
    </pitch>
    <duration>1</duration>
    <voice>1</voice>
    <type>eighth</type>
    <stem>up</stem>
    <beam number="1">begin</beam>
    <notations>
     <technical>
      <string>1</string>
      <fret>0</fret>
     </technical>
    </notations>
   </note>
   <note>
    <pitch>
     <step>C</step>
     <octave>4</octave>
    </pitch>
    <duration>1</duration>
    <voice>1</voice>
    <type>eighth</type>
    <stem>up</stem>
    <beam number="1">continue</beam>
    <notations>
     <technical>
      <string>2</string>
      <fret>1</fret>
     </technical>
    </notations>
   </note>
   <note>
    <pitch>
     <step>A</step>
     <octave>3</octave>
    </pitch>
    <duration>1</duration>
    <voice>1</voice>
    <type>eighth</type>
    <stem>up</stem>
    <beam number="1">end</beam>
    <notations>
     <technical>
      <string>3</string>
      <fret>2</fret>
     </technical>
    </notations>
   </note>
   <note>
    <pitch>
     <step>F</step>
     <octave>3</octave>
    </pitch>
    <duration>1</duration>
    <voice>1</voice>
    <type>eighth</type>
    <stem>up</stem>
    <beam number="1">begin</beam>
    <notations>
     <technical>
      <string>4</string>
      <fret>3</fret>
     </technical>
    </notations>
   </note>
   <note>
    <pitch>
     <step>A</step>
     <octave>3</octave>
    </pitch>
    <duration>1</duration>
    <voice>1</voice>
    <type>eighth</type>
    <stem>up</stem>
    <beam number="1">continue</beam>
    <notations>
     <technical>
      <string>3</string>
      <fret>2</fret>
     </technical>
    </notations>
   </note>
   <note>
    <pitch>
     <step>C</step>
     <octave>4</octave>
    </pitch>
    <duration>1</duration>
    <voice>1</voice>
    <type>eighth</type>
    <stem>up</stem>
    <beam number="1">end</beam>
    <notations>
     <technical>
      <string>2</string>
      <fret>1</fret>
     </technical>
    </notations>
   </note>
   <note>
    <pitch>
     <step>E</step>
     <octave>4</octave>
    </pitch>
    <duration>1</duration>
    <voice>1</voice>
    <type>eighth</type>
    <stem>up</stem>
    <beam number="1">begin</beam>
    <notations>
     <technical>
      <string>1</string>
      <fret>0</fret>
     </technical>
    </notations>
   </note>
   <note>
    <pitch>
     <step>C</step>
     <octave>4</octave>
    </pitch>
    <duration>1</duration>
    <voice>1</voice>
    <type>eighth</type>
    <stem>up</stem>
    <beam number="1">continue</beam>
    <notations>
     <technical>
      <string>2</string>
      <fret>1</fret>
     </technical>
    </notations>
   </note>
   <note>
    <pitch>
     <step>A</step>
     <octave>3</octave>
    </pitch>
    <duration>1</duration>
    <voice>1</voice>
    <type>eighth</type>
    <stem>up</stem>
    <beam number="1">end</beam>
    <notations>
     <technical>
      <string>3</string>
      <fret>2</fret>
     </technical>
    </notations>
   </note>
  </measure>
  <measure number="9">
   <harmony>
    <root>
     <root-step>G</root-step>
     <root-alter>0</root-alter>
    </root>
    <kind>major</kind>
    <frame>
     <frame-strings>6</frame-strings>
     <frame-frets>5</frame-frets>
     <first-fret>1</first-fret>
     <frame-note>
      <string>6</string>
      <fret>3</fret>
     </frame-note>
     <frame-note>
      <string>3</string>
      <fret>0</fret>
     </frame-note>
     <frame-note>
      <string>2</string>
      <fret>0</fret>
     </frame-note>
     <frame-note>
      <string>1</string>
      <fret>3</fret>
     </frame-note>
    </frame>
    <degree>
     <degree-value>5</degree-value>
     <degree-alter>0</degree-alter>
     <degree-type>subtract</degree-type>
    </degree>
   </harmony>
   <direction>
    <direction-type>
     <dynamics>
      <mf/>
     </dynamics>
    </direction-type>
   </direction>
   <note>
    <pitch>
     <step>G</step>
     <octave>2</octave>
    </pitch>
    <duration>1</duration>
    <voice>1</voice>
    <type>eighth</type>
    <stem>up</stem>
    <beam number="1">begin</beam>
    <notations>
     <technical>
      <string>6</string>
      <fret>3</fret>
     </technical>
    </notations>
   </note>
   <note>
    <pitch>
     <step>G</step>
     <octave>3</octave>
    </pitch>
    <duration>1</duration>
    <voice>1</voice>
    <type>eighth</type>
    <stem>up</stem>
    <beam number="1">continue</beam>
    <notations>
     <technical>
      <string>3</string>
      <fret>0</fret>
     </technical>
    </notations>
   </note>
   <note>
    <pitch>
     <step>B</step>
     <octave>3</octave>
    </pitch>
    <duration>1</duration>
    <voice>1</voice>
    <type>eighth</type>
    <stem>up</stem>
    <beam number="1">end</beam>
    <notations>
     <technical>
      <string>2</string>
      <fret>0</fret>
     </technical>
    </notations>
   </note>
   <note>
    <pitch>
     <step>G</step>
     <octave>4</octave>
    </pitch>
    <duration>1</duration>
    <voice>1</voice>
    <type>eighth</type>
    <stem>up</stem>
    <beam number="1">begin</beam>
    <notations>
     <technical>
      <string>1</string>
      <fret>3</fret>
     </technical>
    </notations>
   </note>
   <note>
    <pitch>
     <step>B</step>
     <octave>3</octave>
    </pitch>
    <duration>1</duration>
    <voice>1</voice>
    <type>eighth</type>
    <stem>up</stem>
    <beam number="1">continue</beam>
    <notations>
     <technical>
      <string>2</string>
      <fret>0</fret>
     </technical>
    </notations>
   </note>
   <note>
    <pitch>
     <step>G</step>
     <octave>3</octave>
    </pitch>
    <duration>1</duration>
    <voice>1</voice>
    <type>eighth</type>
    <stem>up</stem>
    <beam number="1">end</beam>
    <notations>
     <technical>
      <string>3</string>
      <fret>0</fret>
     </technical>
    </notations>
   </note>
   <note>
    <pitch>
     <step>G</step>
     <octave>2</octave>
    </pitch>
    <duration>1</duration>
    <voice>1</voice>
    <type>eighth</type>
    <stem>up</stem>
    <beam number="1">begin</beam>
    <notations>
     <technical>
      <string>6</string>
      <fret>3</fret>
     </technical>
    </notations>
   </note>
   <note>
    <pitch>
     <step>G</step>
     <octave>3</octave>
    </pitch>
    <duration>1</duration>
    <voice>1</voice>
    <type>eighth</type>
    <stem>up</stem>
    <beam number="1">continue</beam>
    <notations>
     <technical>
      <string>3</string>
      <fret>0</fret>
     </technical>
    </notations>
   </note>
   <note>
    <pitch>
     <step>B</step>
     <octave>3</octave>
    </pitch>
    <duration>1</duration>
    <voice>1</voice>
    <type>eighth</type>
    <stem>up</stem>
    <beam number="1">end</beam>
    <notations>
     <technical>
      <string>2</string>
      <fret>0</fret>
     </technical>
    </notations>
   </note>
   <note>
    <pitch>
     <step>G</step>
     <octave>4</octave>
    </pitch>
    <duration>1</duration>
    <voice>1</voice>
    <type>eighth</type>
    <stem>up</stem>
    <beam number="1">begin</beam>
    <notations>
     <technical>
      <string>1</string>
      <fret>3</fret>
     </technical>
    </notations>
   </note>
   <note>
    <pitch>
     <step>B</step>
     <octave>3</octave>
    </pitch>
    <duration>1</duration>
    <voice>1</voice>
    <type>eighth</type>
    <stem>up</stem>
    <beam number="1">continue</beam>
    <notations>
     <technical>
      <string>2</string>
      <fret>0</fret>
     </technical>
    </notations>
   </note>
   <note>
    <pitch>
     <step>G</step>
     <octave>3</octave>
    </pitch>
    <duration>1</duration>
    <voice>1</voice>
    <type>eighth</type>
    <stem>up</stem>
    <beam number="1">end</beam>
    <notations>
     <technical>
      <string>3</string>
      <fret>0</fret>
     </technical>
    </notations>
   </note>
  </measure>
  <measure number="10">
   <print new-system="yes"/>
   <harmony>
    <root>
     <root-step>C</root-step>
     <root-alter>0</root-alter>
    </root>
    <kind>major</kind>
    <frame>
     <frame-strings>6</frame-strings>
     <frame-frets>5</frame-frets>
     <first-fret>1</first-fret>
     <frame-note>
      <string>5</string>
      <fret>3</fret>
     </frame-note>
     <frame-note>
      <string>3</string>
      <fret>0</fret>
     </frame-note>
     <frame-note>
      <string>2</string>
      <fret>1</fret>
     </frame-note>
     <frame-note>
      <string>1</string>
      <fret>0</fret>
     </frame-note>
    </frame>
   </harmony>
   <direction>
    <direction-type>
     <dynamics>
      <mf/>
     </dynamics>
    </direction-type>
   </direction>
   <note>
    <pitch>
     <step>C</step>
     <octave>3</octave>
    </pitch>
    <duration>1</duration>
    <voice>1</voice>
    <type>eighth</type>
    <stem>up</stem>
    <beam number="1">begin</beam>
    <notations>
     <technical>
      <string>5</string>
      <fret>3</fret>
     </technical>
    </notations>
   </note>
   <note>
    <pitch>
     <step>G</step>
     <octave>3</octave>
    </pitch>
    <duration>1</duration>
    <voice>1</voice>
    <type>eighth</type>
    <stem>up</stem>
    <beam number="1">continue</beam>
    <notations>
     <technical>
      <string>3</string>
      <fret>0</fret>
     </technical>
    </notations>
   </note>
   <note>
    <pitch>
     <step>C</step>
     <octave>4</octave>
    </pitch>
    <duration>1</duration>
    <voice>1</voice>
    <type>eighth</type>
    <stem>up</stem>
    <beam number="1">end</beam>
    <notations>
     <technical>
      <string>2</string>
      <fret>1</fret>
     </technical>
    </notations>
   </note>
   <note>
    <pitch>
     <step>E</step>
     <octave>4</octave>
    </pitch>
    <duration>1</duration>
    <voice>1</voice>
    <type>eighth</type>
    <stem>up</stem>
    <beam number="1">begin</beam>
    <notations>
     <technical>
      <string>1</string>
      <fret>0</fret>
     </technical>
    </notations>
   </note>
   <note>
    <pitch>
     <step>C</step>
     <octave>4</octave>
    </pitch>
    <duration>1</duration>
    <voice>1</voice>
    <type>eighth</type>
    <stem>up</stem>
    <beam number="1">continue</beam>
    <notations>
     <technical>
      <string>2</string>
      <fret>1</fret>
     </technical>
    </notations>
   </note>
   <note>
    <pitch>
     <step>G</step>
     <octave>3</octave>
    </pitch>
    <duration>1</duration>
    <voice>1</voice>
    <type>eighth</type>
    <stem>up</stem>
    <beam number="1">end</beam>
    <notations>
     <technical>
      <string>3</string>
      <fret>0</fret>
     </technical>
    </notations>
   </note>
   <note>
    <pitch>
     <step>C</step>
     <octave>3</octave>
    </pitch>
    <duration>1</duration>
    <voice>1</voice>
    <type>eighth</type>
    <stem>up</stem>
    <beam number="1">begin</beam>
    <notations>
     <technical>
      <string>5</string>
      <fret>3</fret>
     </technical>
    </notations>
   </note>
   <note>
    <pitch>
     <step>G</step>
     <octave>3</octave>
    </pitch>
    <duration>1</duration>
    <voice>1</voice>
    <type>eighth</type>
    <stem>up</stem>
    <beam number="1">continue</beam>
    <notations>
     <technical>
      <string>3</string>
      <fret>0</fret>
     </technical>
    </notations>
   </note>
   <note>
    <pitch>
     <step>C</step>
     <octave>4</octave>
    </pitch>
    <duration>1</duration>
    <voice>1</voice>
    <type>eighth</type>
    <stem>up</stem>
    <beam number="1">end</beam>
    <notations>
     <technical>
      <string>2</string>
      <fret>1</fret>
     </technical>
    </notations>
   </note>
   <note>
    <pitch>
     <step>E</step>
     <octave>4</octave>
    </pitch>
    <duration>1</duration>
    <voice>1</voice>
    <type>eighth</type>
    <stem>up</stem>
    <beam number="1">begin</beam>
    <notations>
     <technical>
      <string>1</string>
      <fret>0</fret>
     </technical>
    </notations>
   </note>
   <note>
    <pitch>
     <step>C</step>
     <octave>4</octave>
    </pitch>
    <duration>1</duration>
    <voice>1</voice>
    <type>eighth</type>
    <stem>up</stem>
    <beam number="1">continue</beam>
    <notations>
     <technical>
      <string>2</string>
      <fret>1</fret>
     </technical>
    </notations>
   </note>
   <note>
    <pitch>
     <step>G</step>
     <octave>3</octave>
    </pitch>
    <duration>1</duration>
    <voice>1</voice>
    <type>eighth</type>
    <stem>up</stem>
    <beam number="1">end</beam>
    <notations>
     <technical>
      <string>3</string>
      <fret>0</fret>
     </technical>
    </notations>
   </note>
  </measure>
  <measure number="11">
   <direction>
    <direction-type>
     <dynamics>
      <mf/>
     </dynamics>
    </direction-type>
   </direction>
   <note>
    <pitch>
     <step>A</step>
     <octave>2</octave>
    </pitch>
    <duration>1</duration>
    <voice>1</voice>
    <type>eighth</type>
    <stem>up</stem>
    <beam number="1">begin</beam>
    <notations>
     <technical>
      <string>5</string>
      <fret>0</fret>
     </technical>
    </notations>
   </note>
   <harmony>
    <root>
     <root-step>A</root-step>
     <root-alter>0</root-alter>
    </root>
    <kind>minor</kind>
    <frame>
     <frame-strings>6</frame-strings>
     <frame-frets>5</frame-frets>
     <first-fret>1</first-fret>
     <frame-note>
      <string>5</string>
      <fret>0</fret>
     </frame-note>
     <frame-note>
      <string>3</string>
      <fret>2</fret>
     </frame-note>
     <frame-note>
      <string>2</string>
      <fret>1</fret>
     </frame-note>
     <frame-note>
      <string>1</string>
      <fret>0</fret>
     </frame-note>
    </frame>
   </harmony>
   <note>
    <pitch>
     <step>A</step>
     <octave>3</octave>
    </pitch>
    <duration>1</duration>
    <voice>1</voice>
    <type>eighth</type>
    <stem>up</stem>
    <beam number="1">continue</beam>
    <notations>
     <technical>
      <string>3</string>
      <fret>2</fret>
     </technical>
    </notations>
   </note>
   <note>
    <pitch>
     <step>C</step>
     <octave>4</octave>
    </pitch>
    <duration>1</duration>
    <voice>1</voice>
    <type>eighth</type>
    <stem>up</stem>
    <beam number="1">end</beam>
    <notations>
     <technical>
      <string>2</string>
      <fret>1</fret>
     </technical>
    </notations>
   </note>
   <note>
    <pitch>
     <step>E</step>
     <octave>4</octave>
    </pitch>
    <duration>1</duration>
    <voice>1</voice>
    <type>eighth</type>
    <stem>up</stem>
    <beam number="1">begin</beam>
    <notations>
     <technical>
      <string>1</string>
      <fret>0</fret>
     </technical>
    </notations>
   </note>
   <note>
    <pitch>
     <step>C</step>
     <octave>4</octave>
    </pitch>
    <duration>1</duration>
    <voice>1</voice>
    <type>eighth</type>
    <stem>up</stem>
    <beam number="1">continue</beam>
    <notations>
     <technical>
      <string>2</string>
      <fret>1</fret>
     </technical>
    </notations>
   </note>
   <note>
    <pitch>
     <step>A</step>
     <octave>3</octave>
    </pitch>
    <duration>1</duration>
    <voice>1</voice>
    <type>eighth</type>
    <stem>up</stem>
    <beam number="1">end</beam>
    <notations>
     <technical>
      <string>3</string>
      <fret>2</fret>
     </technical>
    </notations>
   </note>
   <note>
    <pitch>
     <step>A</step>
     <octave>2</octave>
    </pitch>
    <duration>1</duration>
    <voice>1</voice>
    <type>eighth</type>
    <stem>up</stem>
    <beam number="1">begin</beam>
    <notations>
     <technical>
      <string>5</string>
      <fret>0</fret>
     </technical>
    </notations>
   </note>
   <note>
    <pitch>
     <step>A</step>
     <octave>3</octave>
    </pitch>
    <duration>1</duration>
    <voice>1</voice>
    <type>eighth</type>
    <stem>up</stem>
    <beam number="1">continue</beam>
    <notations>
     <technical>
      <string>3</string>
      <fret>2</fret>
     </technical>
    </notations>
   </note>
   <note>
    <pitch>
     <step>C</step>
     <octave>4</octave>
    </pitch>
    <duration>1</duration>
    <voice>1</voice>
    <type>eighth</type>
    <stem>up</stem>
    <beam number="1">end</beam>
    <notations>
     <technical>
      <string>2</string>
      <fret>1</fret>
     </technical>
    </notations>
   </note>
   <note>
    <pitch>
     <step>E</step>
     <octave>4</octave>
    </pitch>
    <duration>1</duration>
    <voice>1</voice>
    <type>eighth</type>
    <stem>up</stem>
    <beam number="1">begin</beam>
    <notations>
     <technical>
      <string>1</string>
      <fret>0</fret>
     </technical>
    </notations>
   </note>
   <note>
    <pitch>
     <step>C</step>
     <octave>4</octave>
    </pitch>
    <duration>1</duration>
    <voice>1</voice>
    <type>eighth</type>
    <stem>up</stem>
    <beam number="1">continue</beam>
    <notations>
     <technical>
      <string>2</string>
      <fret>1</fret>
     </technical>
    </notations>
   </note>
   <note>
    <pitch>
     <step>A</step>
     <octave>3</octave>
    </pitch>
    <duration>1</duration>
    <voice>1</voice>
    <type>eighth</type>
    <stem>up</stem>
    <beam number="1">end</beam>
    <notations>
     <technical>
      <string>3</string>
      <fret>2</fret>
     </technical>
    </notations>
   </note>
  </measure>
  <measure number="12">
   <direction>
    <direction-type>
     <dynamics>
      <mf/>
     </dynamics>
    </direction-type>
   </direction>
   <note>
    <pitch>
     <step>F</step>
     <octave>3</octave>
    </pitch>
    <duration>1</duration>
    <voice>1</voice>
    <type>eighth</type>
    <stem>up</stem>
    <beam number="1">begin</beam>
    <notations>
     <technical>
      <string>4</string>
      <fret>3</fret>
     </technical>
    </notations>
   </note>
   <harmony>
    <root>
     <root-step>F</root-step>
     <root-alter>0</root-alter>
    </root>
    <kind>major-seventh</kind>
    <frame>
     <frame-strings>6</frame-strings>
     <frame-frets>5</frame-frets>
     <first-fret>1</first-fret>
     <frame-note>
      <string>4</string>
      <fret>3</fret>
     </frame-note>
     <frame-note>
      <string>3</string>
      <fret>2</fret>
     </frame-note>
     <frame-note>
      <string>2</string>
      <fret>1</fret>
     </frame-note>
     <frame-note>
      <string>1</string>
      <fret>0</fret>
     </frame-note>
    </frame>
   </harmony>
   <note>
    <pitch>
     <step>A</step>
     <octave>3</octave>
    </pitch>
    <duration>1</duration>
    <voice>1</voice>
    <type>eighth</type>
    <stem>up</stem>
    <beam number="1">continue</beam>
    <notations>
     <technical>
      <string>3</string>
      <fret>2</fret>
     </technical>
    </notations>
   </note>
   <note>
    <pitch>
     <step>C</step>
     <octave>4</octave>
    </pitch>
    <duration>1</duration>
    <voice>1</voice>
    <type>eighth</type>
    <stem>up</stem>
    <beam number="1">end</beam>
    <notations>
     <technical>
      <string>2</string>
      <fret>1</fret>
     </technical>
    </notations>
   </note>
   <note>
    <pitch>
     <step>E</step>
     <octave>4</octave>
    </pitch>
    <duration>1</duration>
    <voice>1</voice>
    <type>eighth</type>
    <stem>up</stem>
    <beam number="1">begin</beam>
    <notations>
     <technical>
      <string>1</string>
      <fret>0</fret>
     </technical>
    </notations>
   </note>
   <note>
    <pitch>
     <step>C</step>
     <octave>4</octave>
    </pitch>
    <duration>1</duration>
    <voice>1</voice>
    <type>eighth</type>
    <stem>up</stem>
    <beam number="1">continue</beam>
    <notations>
     <technical>
      <string>2</string>
      <fret>1</fret>
     </technical>
    </notations>
   </note>
   <note>
    <pitch>
     <step>A</step>
     <octave>3</octave>
    </pitch>
    <duration>1</duration>
    <voice>1</voice>
    <type>eighth</type>
    <stem>up</stem>
    <beam number="1">end</beam>
    <notations>
     <technical>
      <string>3</string>
      <fret>2</fret>
     </technical>
    </notations>
   </note>
   <note>
    <pitch>
     <step>F</step>
     <octave>3</octave>
    </pitch>
    <duration>1</duration>
    <voice>1</voice>
    <type>eighth</type>
    <stem>up</stem>
    <beam number="1">begin</beam>
    <notations>
     <technical>
      <string>4</string>
      <fret>3</fret>
     </technical>
    </notations>
   </note>
   <note>
    <pitch>
     <step>A</step>
     <octave>3</octave>
    </pitch>
    <duration>1</duration>
    <voice>1</voice>
    <type>eighth</type>
    <stem>up</stem>
    <beam number="1">continue</beam>
    <notations>
     <technical>
      <string>3</string>
      <fret>2</fret>
     </technical>
    </notations>
   </note>
   <note>
    <pitch>
     <step>C</step>
     <octave>4</octave>
    </pitch>
    <duration>1</duration>
    <voice>1</voice>
    <type>eighth</type>
    <stem>up</stem>
    <beam number="1">end</beam>
    <notations>
     <technical>
      <string>2</string>
      <fret>1</fret>
     </technical>
    </notations>
   </note>
   <note>
    <pitch>
     <step>E</step>
     <octave>4</octave>
    </pitch>
    <duration>1</duration>
    <voice>1</voice>
    <type>eighth</type>
    <stem>up</stem>
    <beam number="1">begin</beam>
    <notations>
     <technical>
      <string>1</string>
      <fret>0</fret>
     </technical>
    </notations>
   </note>
   <note>
    <pitch>
     <step>C</step>
     <octave>4</octave>
    </pitch>
    <duration>1</duration>
    <voice>1</voice>
    <type>eighth</type>
    <stem>up</stem>
    <beam number="1">continue</beam>
    <notations>
     <technical>
      <string>2</string>
      <fret>1</fret>
     </technical>
    </notations>
   </note>
   <note>
    <pitch>
     <step>A</step>
     <octave>3</octave>
    </pitch>
    <duration>1</duration>
    <voice>1</voice>
    <type>eighth</type>
    <stem>up</stem>
    <beam number="1">end</beam>
    <notations>
     <technical>
      <string>3</string>
      <fret>2</fret>
     </technical>
    </notations>
   </note>
  </measure>
  <measure number="13">
   <harmony>
    <root>
     <root-step>G</root-step>
     <root-alter>0</root-alter>
    </root>
    <kind>major</kind>
    <frame>
     <frame-strings>6</frame-strings>
     <frame-frets>5</frame-frets>
     <first-fret>1</first-fret>
     <frame-note>
      <string>6</string>
      <fret>3</fret>
     </frame-note>
     <frame-note>
      <string>3</string>
      <fret>0</fret>
     </frame-note>
     <frame-note>
      <string>2</string>
      <fret>0</fret>
     </frame-note>
     <frame-note>
      <string>1</string>
      <fret>3</fret>
     </frame-note>
    </frame>
    <degree>
     <degree-value>5</degree-value>
     <degree-alter>0</degree-alter>
     <degree-type>subtract</degree-type>
    </degree>
   </harmony>
   <direction>
    <direction-type>
     <dynamics>
      <mf/>
     </dynamics>
    </direction-type>
   </direction>
   <note>
    <pitch>
     <step>G</step>
     <octave>2</octave>
    </pitch>
    <duration>1</duration>
    <voice>1</voice>
    <type>eighth</type>
    <stem>up</stem>
    <beam number="1">begin</beam>
    <notations>
     <technical>
      <string>6</string>
      <fret>3</fret>
     </technical>
    </notations>
   </note>
   <note>
    <pitch>
     <step>G</step>
     <octave>3</octave>
    </pitch>
    <duration>1</duration>
    <voice>1</voice>
    <type>eighth</type>
    <stem>up</stem>
    <beam number="1">continue</beam>
    <notations>
     <technical>
      <string>3</string>
      <fret>0</fret>
     </technical>
    </notations>
   </note>
   <note>
    <pitch>
     <step>B</step>
     <octave>3</octave>
    </pitch>
    <duration>1</duration>
    <voice>1</voice>
    <type>eighth</type>
    <stem>up</stem>
    <beam number="1">end</beam>
    <notations>
     <technical>
      <string>2</string>
      <fret>0</fret>
     </technical>
    </notations>
   </note>
   <note>
    <pitch>
     <step>G</step>
     <octave>4</octave>
    </pitch>
    <duration>1</duration>
    <voice>1</voice>
    <type>eighth</type>
    <stem>up</stem>
    <beam number="1">begin</beam>
    <notations>
     <technical>
      <string>1</string>
      <fret>3</fret>
     </technical>
    </notations>
   </note>
   <note>
    <pitch>
     <step>B</step>
     <octave>3</octave>
    </pitch>
    <duration>1</duration>
    <voice>1</voice>
    <type>eighth</type>
    <stem>up</stem>
    <beam number="1">continue</beam>
    <notations>
     <technical>
      <string>2</string>
      <fret>0</fret>
     </technical>
    </notations>
   </note>
   <note>
    <pitch>
     <step>G</step>
     <octave>3</octave>
    </pitch>
    <duration>1</duration>
    <voice>1</voice>
    <type>eighth</type>
    <stem>up</stem>
    <beam number="1">end</beam>
    <notations>
     <technical>
      <string>3</string>
      <fret>0</fret>
     </technical>
    </notations>
   </note>
   <note>
    <pitch>
     <step>G</step>
     <octave>2</octave>
    </pitch>
    <duration>1</duration>
    <voice>1</voice>
    <type>eighth</type>
    <stem>up</stem>
    <beam number="1">begin</beam>
    <notations>
     <technical>
      <string>6</string>
      <fret>3</fret>
     </technical>
    </notations>
   </note>
   <note>
    <pitch>
     <step>G</step>
     <octave>3</octave>
    </pitch>
    <duration>1</duration>
    <voice>1</voice>
    <type>eighth</type>
    <stem>up</stem>
    <beam number="1">continue</beam>
    <notations>
     <technical>
      <string>3</string>
      <fret>0</fret>
     </technical>
    </notations>
   </note>
   <note>
    <pitch>
     <step>B</step>
     <octave>3</octave>
    </pitch>
    <duration>1</duration>
    <voice>1</voice>
    <type>eighth</type>
    <stem>up</stem>
    <beam number="1">end</beam>
    <notations>
     <technical>
      <string>2</string>
      <fret>0</fret>
     </technical>
    </notations>
   </note>
   <note>
    <pitch>
     <step>G</step>
     <octave>4</octave>
    </pitch>
    <duration>1</duration>
    <voice>1</voice>
    <type>eighth</type>
    <stem>up</stem>
    <beam number="1">begin</beam>
    <notations>
     <technical>
      <string>1</string>
      <fret>3</fret>
     </technical>
    </notations>
   </note>
   <note>
    <pitch>
     <step>B</step>
     <octave>3</octave>
    </pitch>
    <duration>1</duration>
    <voice>1</voice>
    <type>eighth</type>
    <stem>up</stem>
    <beam number="1">continue</beam>
    <notations>
     <technical>
      <string>2</string>
      <fret>0</fret>
     </technical>
    </notations>
   </note>
   <note>
    <pitch>
     <step>G</step>
     <octave>3</octave>
    </pitch>
    <duration>1</duration>
    <voice>1</voice>
    <type>eighth</type>
    <stem>up</stem>
    <beam number="1">end</beam>
    <notations>
     <technical>
      <string>3</string>
      <fret>0</fret>
     </technical>
    </notations>
   </note>
  </measure>
  <measure number="14">
   <print new-system="yes"/>
   <harmony>
    <root>
     <root-step>C</root-step>
     <root-alter>0</root-alter>
    </root>
    <kind>major</kind>
    <frame>
     <frame-strings>6</frame-strings>
     <frame-frets>5</frame-frets>
     <first-fret>1</first-fret>
     <frame-note>
      <string>5</string>
      <fret>3</fret>
     </frame-note>
     <frame-note>
      <string>3</string>
      <fret>0</fret>
     </frame-note>
     <frame-note>
      <string>2</string>
      <fret>1</fret>
     </frame-note>
     <frame-note>
      <string>1</string>
      <fret>0</fret>
     </frame-note>
    </frame>
   </harmony>
   <direction>
    <direction-type>
     <dynamics>
      <mf/>
     </dynamics>
    </direction-type>
   </direction>
   <note>
    <pitch>
     <step>C</step>
     <octave>3</octave>
    </pitch>
    <duration>3</duration>
    <voice>1</voice>
    <type>quarter</type>
    <dot/>
    <stem>up</stem>
    <notations>
     <technical>
      <string>5</string>
      <fret>3</fret>
     </technical>
    </notations>
   </note>
   <note>
    <rest/>
    <duration>3</duration>
    <voice>1</voice>
    <type>quarter</type>
    <dot/>
   </note>
   <note>
    <rest/>
    <duration>3</duration>
    <voice>1</voice>
    <type>quarter</type>
    <dot/>
   </note>
   <note>
    <rest/>
    <duration>3</duration>
    <voice>1</voice>
    <type>quarter</type>
    <dot/>
   </note>
  </measure>
 </part>
</score-partwise>
